<?xml version="1.0" encoding="utf-8"?>
<!-- Generator: Adobe Illustrator 17.1.0, SVG Export Plug-In . SVG Version: 6.00 Build 0)  -->
<!DOCTYPE svg PUBLIC "-//W3C//DTD SVG 1.1//EN" "http://www.w3.org/Graphics/SVG/1.1/DTD/svg11.dtd">
<svg version="1.1" id="header_1_" xmlns="http://www.w3.org/2000/svg" xmlns:xlink="http://www.w3.org/1999/xlink" x="0px" y="0px"
	 viewBox="0 0 152 188" enable-background="new 0 0 152 188" xml:space="preserve">
<g id="logo_3_">
	<g id="shape">
		<g>
			<path fill-rule="evenodd" clip-rule="evenodd" fill="#FCA51D" d="M141,188h1V0h-1V188z M0,183c0,2.8,2.2,5,5,5h134V0H0V183z
				 M144,0v188h3c2.8,0,5-2.2,5-5V0H144z"/>
		</g>
	</g>
	<g id="events_1_">
		<g>
			<path fill="#FFFFFF" d="M19.6,163v-24.9h16.8v4.7H25.2v4.9h10v4.6h-10v6h12.1v4.7H19.6z"/>
			<path fill="#FFFFFF" d="M43.9,163c-1-2.1-2-4.3-2.9-6.5c-1-2.3-1.9-4.5-2.8-6.7c-0.9-2.2-1.7-4.3-2.4-6.3s-1.4-3.8-1.9-5.4h6.2
				c0.5,1.4,1,3,1.6,4.7c0.6,1.7,1.2,3.3,1.7,5c0.6,1.7,1.2,3.2,1.7,4.8c0.5,1.5,1.1,2.8,1.6,3.9c0.5-1.1,1-2.4,1.5-3.9
				c0.6-1.5,1.1-3.1,1.7-4.8c0.6-1.7,1.2-3.3,1.7-5c0.6-1.7,1.1-3.2,1.6-4.7h6c-0.6,1.6-1.2,3.4-1.9,5.4c-0.7,2-1.5,4.1-2.4,6.3
				c-0.9,2.2-1.8,4.4-2.7,6.7c-1,2.3-1.9,4.4-2.9,6.5H43.9z"/>
			<path fill="#FFFFFF" d="M57,163v-24.9h16.8v4.7H62.6v4.9h10v4.6h-10v6h12.1v4.7H57z"/>
			<path fill="#FFFFFF" d="M90.1,163c-1.6-2.9-3.3-5.7-5.2-8.5s-3.9-5.4-6-7.9V163h-5.5v-24.9H78c0.8,0.8,1.7,1.8,2.6,2.9
				c1,1.2,1.9,2.4,2.9,3.7c1,1.3,2,2.7,3,4.1c1,1.4,1.9,2.8,2.8,4.1v-14.7h5.6V163H90.1z"/>
			<path fill="#FFFFFF" d="M113.7,138.1v4.8h-7.5V163h-5.6v-20.2h-7.5v-4.8H113.7z"/>
			<path fill="#FFFFFF" d="M118.7,158.7c0.8,0,1.4-0.1,2-0.2c0.5-0.1,0.9-0.3,1.2-0.5c0.3-0.2,0.5-0.5,0.6-0.8
				c0.1-0.3,0.2-0.7,0.2-1c0-0.8-0.4-1.5-1.2-2c-0.8-0.5-2.1-1.1-4-1.7c-0.8-0.3-1.6-0.6-2.4-1c-0.8-0.4-1.5-0.8-2.2-1.4
				c-0.6-0.6-1.2-1.2-1.6-2.1c-0.4-0.8-0.6-1.8-0.6-2.9c0-1.2,0.2-2.2,0.6-3.1c0.4-0.9,1-1.7,1.8-2.4s1.8-1.1,2.9-1.5
				c1.1-0.3,2.4-0.5,3.8-0.5c1.7,0,3.1,0.2,4.4,0.5c1.2,0.4,2.2,0.8,3,1.2l-1.6,4.4c-0.7-0.4-1.5-0.7-2.3-1
				c-0.9-0.3-1.9-0.4-3.1-0.4c-1.3,0-2.3,0.2-2.9,0.6c-0.6,0.4-0.9,0.9-0.9,1.7c0,0.5,0.1,0.8,0.3,1.2c0.2,0.3,0.5,0.6,0.9,0.8
				c0.4,0.3,0.9,0.5,1.4,0.7c0.5,0.2,1.1,0.4,1.7,0.6c1.3,0.5,2.4,1,3.4,1.4c1,0.5,1.8,1,2.4,1.6c0.6,0.6,1.1,1.4,1.4,2.2
				c0.3,0.8,0.5,1.9,0.5,3.1c0,2.3-0.8,4.1-2.4,5.4s-4.1,1.9-7.4,1.9c-1.1,0-2.1-0.1-3-0.2s-1.7-0.3-2.4-0.5
				c-0.7-0.2-1.3-0.4-1.8-0.6s-0.9-0.4-1.2-0.6l1.6-4.5c0.7,0.4,1.7,0.8,2.8,1.1C115.8,158.6,117.1,158.7,118.7,158.7z"/>
		</g>
	</g>
</g>
</svg>
